# xmcd
#
# Track frame offsets:
#	150
#	14093
#	33136
#	57230
#	80182
#	95407
#	111475
#	129327
#	144477
#	159403
#	176508
#	191886
#	205648
#	224291
#	240840
#	267567
#
# Disc length: 3994 seconds
#
# Revision: 2
# Processed by: cddbd v1.5.2PL0 Copyright (c) Steve Scherf et al.
# Submitted via: audiograbber 1.83.01
#
DISCID=e30f9810
DTITLE=Various Artist - ASK1540
DYEAR=2005
DGENRE=Country
TTITLE0=Alan Jackson - Talkin' Song Repair Blues, The
TTITLE1=Big and Rich - Big Time
TTITLE2=Big and Rich - Real World
TTITLE3=Big and Rich - Rollin' (The Ballad Of Big and Rich)
TTITLE4=Blake Shelton - Goodbye Time
TTITLE5=Brad Paisley - Mud On The Tires
TTITLE6=Brooks and Dunn - It's Getting Better All The Time
TTITLE7=Buddy Jewell - If She Were Any Other Woman
TTITLE8=Craig Morgan - That's What I Love About Sunday
TTITLE9=Dierks Bentley - Lot Of Leavin' Left To Do
TTITLE10=Julie Roberts - Wake Up Older
TTITLE11=Keith Anderson - Pickin' Wildflowers
TTITLE12=Keith Urban - Making Memories Of Us
TTITLE13=LeAnn Rimes - Probably Wouldn't Be This Way
TTITLE14=Trace Adkins - Songs About Me
TTITLE15=Data Track - Data Track
EXTD=All Star Karaoke
EXTT0=
EXTT1=
EXTT2=
EXTT3=
EXTT4=
EXTT5=
EXTT6=
EXTT7=
EXTT8=
EXTT9=
EXTT10=
EXTT11=
EXTT12=
EXTT13=
EXTT14=
EXTT15=
PLAYORDER=
